<svg width="118" height="35" fill="none" xmlns="http://www.w3.org/2000/svg"><path fill-rule="evenodd" clip-rule="evenodd" d="M101.469 33.205L96.916 28.1l-4.51 5.106h-9.492l9.278-10.426-9.278-10.428h9.789l4.596 5.065 4.425-5.065h9.449l-9.235 10.385 9.361 10.469h-9.83zm-36.789 0V.355h18.233v7.323H72.402v4.673h10.511v7.045H72.402v6.467h10.511v7.342H64.68z" fill="#F3791F"/><path fill-rule="evenodd" clip-rule="evenodd" d="M52.32 28.204c-2.834 0-4.596-2.643-4.596-5.4 0-2.949 1.531-5.784 4.596-5.784 3.178 0 4.443 2.835 4.443 5.784 0 2.795-1.34 5.4-4.443 5.4zm-27.33-8.71c.484-2.085 2.102-3.45 4.123-3.45 2.224 0 3.76 1.323 4.165 3.45H24.99zM56.988.357V13.8h-.085c-1.702-1.958-3.83-2.64-6.298-2.64-5.058 0-8.868 3.44-10.203 7.983-1.527-5.006-5.459-8.075-11.29-8.075-4.736 0-8.473 2.125-10.426 5.589V12.35H8.898V7.678h10.683V.356H.173v32.85h8.725v-13.81h8.698a13.066 13.066 0 0 0-.398 3.247c0 6.853 5.234 11.662 11.915 11.662 5.619 0 9.32-2.639 11.278-7.448h-7.477c-1.011 1.447-1.778 1.875-3.8 1.875-2.345 0-4.367-2.045-4.367-4.47h15.227c.66 5.44 4.899 10.135 10.716 10.135a7.449 7.449 0 0 0 6.214-3.32h.084v2.128h7.692V.355h-7.692z" fill="#472F91"/><path fill-rule="evenodd" clip-rule="evenodd" d="M115.482 30.843c.366-.013.449-.165.449-.355 0-.184-.083-.281-.392-.281h-.467v.636h.41zm-.41.385v1.075h-.388V29.82h.805c.454 0 .926.125.926.686 0 .286-.174.512-.506.58v.01c.344.068.382.22.422.49.034.233.062.493.147.718h-.495c-.028-.14-.068-.298-.084-.445-.028-.213-.028-.41-.141-.528-.096-.102-.224-.09-.36-.102h-.326zm2.187-.139c0-.955-.775-1.738-1.737-1.738-.967 0-1.747.783-1.747 1.738 0 .966.78 1.747 1.747 1.747a1.74 1.74 0 0 0 1.737-1.747zm-3.855 0c0-1.163.944-2.109 2.118-2.109 1.169 0 2.107.946 2.107 2.109a2.105 2.105 0 0 1-2.107 2.117 2.111 2.111 0 0 1-2.118-2.117z" fill="#F3791F"/></svg>