<?xml version="1.0" encoding="iso-8859-1"?>
<!-- Generator: Adobe Illustrator 19.0.0, SVG Export Plug-In . SVG Version: 6.00 Build 0)  -->
<svg xmlns="http://www.w3.org/2000/svg" xmlns:xlink="http://www.w3.org/1999/xlink" version="1.1" id="Capa_1" x="0px" y="0px" viewBox="0 0 512 512" style="enable-background:new 0 0 512 512;" xml:space="preserve" width="512" height="512">
<g>
	<path d="M495.945,174.999L512,175.426v-83.76H0v328.667h512v-83.76l-15.396,0.406L495.96,337   c-12.296-0.022-22.293-10.032-22.293-22.333c0-12.315,10.018-22.333,22.278-22.334L512,292.76v-73.52l-15.396,0.406l-0.604,0.02   c-12.315,0-22.333-10.019-22.333-22.333C473.667,185.019,483.685,175,495.945,174.999z M482,264.235   c-22.081,6.137-38.333,26.422-38.333,50.432c0,24.01,16.252,44.295,38.333,50.432v25.235H30V121.667h452v25.235   c-22.081,6.137-38.333,26.422-38.333,50.432c0,24.01,16.252,44.295,38.333,50.432V264.235z"/>
	<rect x="337" y="232.296" width="30" height="47.407"/>
	<rect x="337" y="152.333" width="30" height="47.408"/>
	<rect x="337" y="312.259" width="30" height="47.408"/>
	<path d="M221.139,250.097c-20.858,0-36.601,13.971-36.601,38.372c0,24.597,15.742,38.372,36.601,38.372   s36.601-13.774,36.601-38.372C257.739,264.068,241.997,250.097,221.139,250.097z M221.139,305.588   c-4.329,0-8.658-3.936-8.658-17.12c0-13.184,4.329-17.12,8.658-17.12s8.658,3.936,8.658,17.12   C229.797,301.652,225.468,305.588,221.139,305.588z"/>
	<path d="M156.792,223.532c0-24.4-15.742-38.371-36.601-38.371s-36.601,13.971-36.601,38.371c0,24.597,15.742,38.372,36.601,38.372   S156.792,248.129,156.792,223.532z M111.533,223.532c0-13.184,4.329-17.12,8.658-17.12s8.658,3.936,8.658,17.12   c0,13.184-4.329,17.12-8.658,17.12S111.533,236.716,111.533,223.532z"/>
	<polygon points="201.067,187.128 107.008,324.872 140.263,324.872 234.322,187.128  "/>
</g>















</svg>
