<svg id="Layer_1" data-name="Layer 1" xmlns="http://www.w3.org/2000/svg" viewBox="0 0 299.06 309.2"><path d="M952.46,512.94c.37-4,1-7.57,1-11.17q.09-93.19,0-186.39a63,63,0,0,0-1.05-11.88C949.59,289.1,939,279.55,924.29,278a105.23,105.23,0,0,0-10.94-.47q-84,0-167.94,0a74,74,0,0,0-11.92.7c-15.56,2.52-25.7,13.65-27,29.44-.24,2.81-.29,5.64-.29,8.46q0,92.7,0,185.39a64.9,64.9,0,0,0,.69,11.42c3,16.7,14.9,26.63,32.57,27.14,8.8.26,17.61.09,26.41.09q75.75,0,151.49,0c1.65,0,3.79-.41,4.85.44,2.14,1.72,4.68,4,5.13,6.38.31,1.64-2.27,4.6-4.26,5.67-2.34,1.25-5.44,1.48-8.21,1.48q-91.68.12-183.38,0a40.68,40.68,0,0,1-40.84-40.49q-.29-105.66,0-211.31a40.64,40.64,0,0,1,40.53-40.31q97.68-.23,195.34,0c22.63.06,40.22,18.25,40.37,41.41.18,30.23,0,60.47,0,90.7V506.8c0,8.94-2.32,10.5-10.78,7.33C954.91,513.66,953.63,513.32,952.46,512.94Z" transform="translate(-690.47 -261.94)"/><path d="M924.2,498c2.79,2.42,5.54,4.56,8,7q26.37,26.12,52.64,52.34a27.7,27.7,0,0,1,3.38,3.65,5.85,5.85,0,0,1-.73,8.13,5.94,5.94,0,0,1-8.15.76,27,27,0,0,1-3.67-3.36q-27.88-27.76-55.75-55.56a51.7,51.7,0,0,1-3.56-4.39c-1.64,1.1-2.6,1.65-3.46,2.34C874.75,539,823.37,534,791.33,497.22a9.37,9.37,0,0,0-6.19-2.86c-13.45-.25-26.9-.13-40.35-.13-1.17,0-2.33,0-3.49,0-4.76-.22-7.83-2.87-7.49-6.8.38-4.4,3.12-6.3,7.44-6.28,11.12,0,22.25,0,33.38,0h5.44c-12.71-39.09-8-43.61-5-64.48H740.9c-4.13,0-6.66-2-7-6.14-.34-3.78,2.52-6.66,7-6.72,11.62-.15,23.25-.22,34.87,0,3.78.08,5.81-1.06,7.76-4.43,18.34-31.64,54.28-48,90.46-41.5a86,86,0,0,1,69.41,71.27C947.31,454.28,940.72,476.85,924.2,498ZM851.69,370.25c-22.73.67-43.06,12.23-54.65,36.2-12.9,26.69-11.82,52.81,5.47,78.15,22.67,33.23,73.06,40,102.41,12.93C926,478.05,933.53,444,922.77,416.25S885.35,370.25,851.69,370.25Z" transform="translate(-690.47 -261.94)"/><path d="M831.56,325.66h86.71a37.18,37.18,0,0,1,4.48.1c3.68.44,6.23,2.88,5.63,6.26-.43,2.4-3,4.57-5.06,6.44-.75.68-2.56.27-3.89.27H743.52a16.44,16.44,0,0,1-4.45-.32c-3.23-1-5-3.19-4.79-6.67a6,6,0,0,1,5.59-6,37.57,37.57,0,0,1,5-.12Z" transform="translate(-690.47 -261.94)"/></svg>