<svg id="Layer_1" data-name="Layer 1" xmlns="http://www.w3.org/2000/svg" viewBox="0 0 225 225"><defs><style>.cls-1{fill:#fff;}</style></defs><path d="M763,667h7.71v-5.58c0-13.66,0-27.33,0-41,0-12.94,6.31-21.72,18.59-26,6.59-2.29,13.24-4.41,19.87-6.6,7.09-2.33,7.09-2.32,5.92-10.84-3.49,0-7.1,0-10.71,0-12.92-.2-21.19-10.45-18.58-23.14,1.65-8,3.37-15.94,5.23-23.87a40.47,40.47,0,0,1,39.53-31.27c19.22,0,35.13,12.33,39.61,31,2.06,8.57,3.84,17.21,5.49,25.86,2.06,10.79-6.77,21-18.39,21.41-3.79.14-7.58,0-11.27,0-1.49,8.4-1.49,8.4,5.64,10.77s14.22,4.64,21.28,7.12c10.67,3.74,17.05,12.48,17.3,23.78.16,7.25,0,14.52,0,22.57l19.1-8.71c-11.13-9.48-11.93-21.94-11.4-34.87.23-5.65-.1-11.33.07-17,.31-10.38,7.65-18.3,17.86-18.52,15-.32,30-.08,44.8-.08.39.43.8.67.8.92,0,16.15.22,32.31-.19,48.45-.18,7.43-1.46,8.89-10.25,21.31,5.31,2.46,10.45,5.25,15.88,7.25,10.72,3.93,18.14,10.75,21.07,22v50H872V674.85H770.6v30H864V712H763Zm216.83,37.37c0-13.46.34-26.44-.13-39.4-.27-7.3-4.38-12.77-11.22-15.85-7.72-3.48-15.41-7-23.21-10.33a8.68,8.68,0,0,0-5.57-.36,31.61,31.61,0,0,1-20.07,0,8,8,0,0,0-5.16-.05q-12.37,5.25-24.52,11c-6.14,2.93-10.27,8.07-10.54,14.75-.54,13.25-.16,26.54-.16,40.16ZM954,569.43c-13,0-25.5-.21-38,.1-5.82.15-10.12,4-10.29,9.66-.33,11.3-.64,22.69.48,33.9s12.44,19.7,23.75,19.56c11.87-.13,23.23-9.3,23.84-20.71C954.54,598,954,584,954,569.43ZM804.31,622.18v44.43h22.34V607.18c-4.22,3-7.9,5.64-11.79,8.4-4.8-4.9-9.19-9.45-13.69-13.89-1-1-2.4-2.23-3.58-2.19-10.56.27-19.48,9.56-19.57,20.24-.08,9.67,0,19.34,0,29v17.84h19.08v-44.4Zm65.85,44.67c2.56-6,3.4-12.68,7.17-15.9,6.4-5.47,5.65-11.75,5.67-18.42,0-3.16,0-6.33,0-9.49,0-13-4.14-18.55-16.52-22.76-3.17-1.08-5.13-.55-7.29,1.89-4.15,4.7-8.61,9.11-12.86,13.56l-11.82-8.35v59.21H857V637.25h7.2v29.6Zm-31.28-82.41c0-3.9.27-7.25-.06-10.54-.69-6.89,1.76-11.89,7.76-15.46a7,7,0,0,0,3.07-4.69c.36-5.91.14-11.87.14-18.44-8.86,3.26-16.47,1.36-24.13-2.27-2.79-1.32-6.48-1-9.75-.93-2.67,0-4.06,1.52-3.92,4.55a143.94,143.94,0,0,1,0,15c-.21,3.63,1,5.93,4.2,7.67,5.51,3,7.73,8,7.56,14.14-.1,3.6,0,7.2,0,11Zm-40.74-52.61c3.39-1.85,6.29-3.48,9.23-5,6.88-3.64,14.4-4.79,21-.8,11.58,7,20.78.86,30.76-3.41-7.48-12.7-20.6-18.76-34.71-16.4A32.89,32.89,0,0,0,798.14,531.83Zm47.42,36.49.56,1.53c4.86-.31,9.84-.05,14.54-1.1,4.25-1,7.79-4.32,7.18-9-1.33-10.1-3.49-20.09-5.29-30-5.15.53-6.8,2.58-6.43,7,.44,5.28,0,10.63.13,15.94a12.66,12.66,0,0,1-6.16,11.72A45.17,45.17,0,0,0,845.56,568.32Zm-31.31.78c-3.3-4.62-7.85-8.72-9.41-13.74-1.62-5.24-.36-11.36-.36-18.64-3.67,2.66-7.57,4-8.27,6.31-1.8,5.92-3.3,12.37-2.81,18.43C794,568.56,803.06,571.32,814.25,569.1ZM826.67,591l-19.57,4.9,8.82,9.85C827,598,827,598,826.67,591Zm27.59,4.94L834.54,591c-1.72,10.1,7.05,10.16,10,14.48Z" transform="translate(-763 -487)"/><path d="M988,546c-2.63,6.35-7.42,8.51-14.19,8.46-28.47-.22-56.94-.09-85.41-.09h-4.93c-1.1-5.42-1-9.88,3.8-13.14,5.91-4,7.7-9.65,7.11-16.77-.62-7.61.06-15.32-.2-23-.23-6.91,2.05-12,8.82-14.49h77l8,8Zm-96.11-.19c1.79.89,2.06,1.14,2.33,1.14q40.72,0,81.44.09c4.1,0,5.06-2.34,5.05-5.79,0-13.65-.06-27.31,0-41,0-4.21-1.79-6-6-6q-33.48.11-67,0c-4.55,0-6.14,1.87-6,6.34.22,10,.4,20-.11,30-.18,3.52-2,7.15-3.83,10.33C896.73,542.77,894.29,543.89,891.89,545.81Z" transform="translate(-763 -487)"/><path class="cls-1" d="M988,495l-8-8h8Z" transform="translate(-763 -487)"/><path d="M812.23,686.07h36.56v6.72H812.23Z" transform="translate(-763 -487)"/><path d="M864,622.27V629H842.3v-6.68Z" transform="translate(-763 -487)"/><path d="M972.86,502.27v6.66H909.57v-6.66Z" transform="translate(-763 -487)"/><path d="M909.55,524v-6.54H972.7V524Z" transform="translate(-763 -487)"/><path d="M909.55,539v-6.59h48.19V539Z" transform="translate(-763 -487)"/></svg>